<svg id="visual" viewBox="0 0 960 237" width="960" height="237" xmlns="http://www.w3.org/2000/svg" xmlns:xlink="http://www.w3.org/1999/xlink" version="1.1"><rect x="0" y="0" width="960" height="237" fill="#01111f"></rect><defs><linearGradient id="grad1_0" x1="75.3%" y1="100%" x2="100%" y2="0%"><stop offset="-31.012658227848107%" stop-color="#00943f" stop-opacity="1"></stop><stop offset="131.01265822784808%" stop-color="#00943f" stop-opacity="1"></stop></linearGradient></defs><defs><linearGradient id="grad1_1" x1="75.3%" y1="100%" x2="100%" y2="0%"><stop offset="-31.012658227848107%" stop-color="#00943f" stop-opacity="1"></stop><stop offset="131.01265822784808%" stop-color="#008251" stop-opacity="1"></stop></linearGradient></defs><defs><linearGradient id="grad1_2" x1="75.3%" y1="100%" x2="100%" y2="0%"><stop offset="-31.012658227848107%" stop-color="#006f5c" stop-opacity="1"></stop><stop offset="131.01265822784808%" stop-color="#008251" stop-opacity="1"></stop></linearGradient></defs><defs><linearGradient id="grad1_3" x1="75.3%" y1="100%" x2="100%" y2="0%"><stop offset="-31.012658227848107%" stop-color="#006f5c" stop-opacity="1"></stop><stop offset="131.01265822784808%" stop-color="#005c5f" stop-opacity="1"></stop></linearGradient></defs><defs><linearGradient id="grad1_4" x1="75.3%" y1="100%" x2="100%" y2="0%"><stop offset="-31.012658227848107%" stop-color="#004859" stop-opacity="1"></stop><stop offset="131.01265822784808%" stop-color="#005c5f" stop-opacity="1"></stop></linearGradient></defs><defs><linearGradient id="grad1_5" x1="75.3%" y1="100%" x2="100%" y2="0%"><stop offset="-31.012658227848107%" stop-color="#004859" stop-opacity="1"></stop><stop offset="131.01265822784808%" stop-color="#00354a" stop-opacity="1"></stop></linearGradient></defs><defs><linearGradient id="grad1_6" x1="75.3%" y1="100%" x2="100%" y2="0%"><stop offset="-31.012658227848107%" stop-color="#002236" stop-opacity="1"></stop><stop offset="131.01265822784808%" stop-color="#00354a" stop-opacity="1"></stop></linearGradient></defs><defs><linearGradient id="grad1_7" x1="75.3%" y1="100%" x2="100%" y2="0%"><stop offset="-31.012658227848107%" stop-color="#002236" stop-opacity="1"></stop><stop offset="131.01265822784808%" stop-color="#01111f" stop-opacity="1"></stop></linearGradient></defs><defs><linearGradient id="grad2_0" x1="0%" y1="100%" x2="24.7%" y2="0%"><stop offset="-31.012658227848107%" stop-color="#00943f" stop-opacity="1"></stop><stop offset="131.01265822784808%" stop-color="#00943f" stop-opacity="1"></stop></linearGradient></defs><defs><linearGradient id="grad2_1" x1="0%" y1="100%" x2="24.7%" y2="0%"><stop offset="-31.012658227848107%" stop-color="#008251" stop-opacity="1"></stop><stop offset="131.01265822784808%" stop-color="#00943f" stop-opacity="1"></stop></linearGradient></defs><defs><linearGradient id="grad2_2" x1="0%" y1="100%" x2="24.7%" y2="0%"><stop offset="-31.012658227848107%" stop-color="#008251" stop-opacity="1"></stop><stop offset="131.01265822784808%" stop-color="#006f5c" stop-opacity="1"></stop></linearGradient></defs><defs><linearGradient id="grad2_3" x1="0%" y1="100%" x2="24.7%" y2="0%"><stop offset="-31.012658227848107%" stop-color="#005c5f" stop-opacity="1"></stop><stop offset="131.01265822784808%" stop-color="#006f5c" stop-opacity="1"></stop></linearGradient></defs><defs><linearGradient id="grad2_4" x1="0%" y1="100%" x2="24.7%" y2="0%"><stop offset="-31.012658227848107%" stop-color="#005c5f" stop-opacity="1"></stop><stop offset="131.01265822784808%" stop-color="#004859" stop-opacity="1"></stop></linearGradient></defs><defs><linearGradient id="grad2_5" x1="0%" y1="100%" x2="24.7%" y2="0%"><stop offset="-31.012658227848107%" stop-color="#00354a" stop-opacity="1"></stop><stop offset="131.01265822784808%" stop-color="#004859" stop-opacity="1"></stop></linearGradient></defs><defs><linearGradient id="grad2_6" x1="0%" y1="100%" x2="24.7%" y2="0%"><stop offset="-31.012658227848107%" stop-color="#00354a" stop-opacity="1"></stop><stop offset="131.01265822784808%" stop-color="#002236" stop-opacity="1"></stop></linearGradient></defs><defs><linearGradient id="grad2_7" x1="0%" y1="100%" x2="24.7%" y2="0%"><stop offset="-31.012658227848107%" stop-color="#01111f" stop-opacity="1"></stop><stop offset="131.01265822784808%" stop-color="#002236" stop-opacity="1"></stop></linearGradient></defs><g transform="translate(960, 237)"><path d="M-225.1 0C-216.2 -37.4 -207.3 -74.8 -189.7 -109.5C-172 -144.2 -145.6 -176.2 -112.6 -195C-79.5 -213.8 -39.8 -219.5 0 -225.1L0 0Z" fill="#001a2b"></path><path d="M-197 0C-189.2 -32.7 -181.4 -65.5 -166 -95.8C-150.5 -126.2 -127.4 -154.1 -98.5 -170.6C-69.6 -187.1 -34.8 -192 0 -197L0 0Z" fill="#002b41"></path><path d="M-168.9 0C-162.2 -28.1 -155.5 -56.1 -142.2 -82.1C-129 -108.1 -109.2 -132.1 -84.4 -146.2C-59.6 -160.4 -29.8 -164.6 0 -168.9L0 0Z" fill="#003e52"></path><path d="M-140.7 0C-135.1 -23.4 -129.6 -46.8 -118.5 -68.4C-107.5 -90.1 -91 -110.1 -70.4 -121.9C-49.7 -133.6 -24.8 -137.2 0 -140.7L0 0Z" fill="#00525d"></path><path d="M-112.6 0C-108.1 -18.7 -103.7 -37.4 -94.8 -54.8C-86 -72.1 -72.8 -88.1 -56.3 -97.5C-39.8 -106.9 -19.9 -109.7 0 -112.6L0 0Z" fill="#00655f"></path><path d="M-84.4 0C-81.1 -14 -77.7 -28.1 -71.1 -41.1C-64.5 -54.1 -54.6 -66.1 -42.2 -73.1C-29.8 -80.2 -14.9 -82.3 0 -84.4L0 0Z" fill="#007958"></path><path d="M-56.3 0C-54.1 -9.4 -51.8 -18.7 -47.4 -27.4C-43 -36 -36.4 -44 -28.1 -48.7C-19.9 -53.5 -9.9 -54.9 0 -56.3L0 0Z" fill="#008b49"></path><path d="M-28.1 0C-27 -4.7 -25.9 -9.4 -23.7 -13.7C-21.5 -18 -18.2 -22 -14.1 -24.4C-9.9 -26.7 -5 -27.4 0 -28.1L0 0Z" fill="#00943f"></path></g><g transform="translate(0, 0)"><path d="M225.2 0C220.4 41.4 215.7 82.7 195 112.6C174.3 142.4 137.7 160.7 102.5 177.5C67.3 194.4 33.7 209.8 0 225.2L0 0Z" fill="#001a2b"></path><path d="M197 0C192.9 36.2 188.7 72.4 170.6 98.5C152.5 124.6 120.4 140.6 89.7 155.3C58.9 170.1 29.5 183.5 0 197L0 0Z" fill="#002b41"></path><path d="M168.9 0C165.3 31 161.8 62.1 146.2 84.4C130.7 106.8 103.2 120.5 76.9 133.2C50.5 145.8 25.3 157.3 0 168.9L0 0Z" fill="#003e52"></path><path d="M140.7 0C137.8 25.9 134.8 51.7 121.9 70.4C108.9 89 86 100.4 64.1 111C42.1 121.5 21 131.1 0 140.7L0 0Z" fill="#00525d"></path><path d="M112.6 0C110.2 20.7 107.8 41.4 97.5 56.3C87.1 71.2 68.8 80.3 51.3 88.8C33.7 97.2 16.8 104.9 0 112.6L0 0Z" fill="#00655f"></path><path d="M84.4 0C82.7 15.5 80.9 31 73.1 42.2C65.4 53.4 51.6 60.3 38.4 66.6C25.3 72.9 12.6 78.7 0 84.4L0 0Z" fill="#007958"></path><path d="M56.3 0C55.1 10.3 53.9 20.7 48.7 28.1C43.6 35.6 34.4 40.2 25.6 44.4C16.8 48.6 8.4 52.4 0 56.3L0 0Z" fill="#008b49"></path><path d="M28.1 0C27.6 5.2 27 10.3 24.4 14.1C21.8 17.8 17.2 20.1 12.8 22.2C8.4 24.3 4.2 26.2 0 28.1L0 0Z" fill="#00943f"></path></g></svg>