<svg id="visual" viewBox="0 0 960 540" width="960" height="540" xmlns="http://www.w3.org/2000/svg" xmlns:xlink="http://www.w3.org/1999/xlink" version="1.1"><rect x="0" y="0" width="960" height="540" fill="#001220"></rect><defs><linearGradient id="grad1_0" x1="43.8%" y1="100%" x2="100%" y2="0%"><stop offset="14.444444444444446%" stop-color="#009431" stop-opacity="1"></stop><stop offset="85.55555555555554%" stop-color="#009431" stop-opacity="1"></stop></linearGradient></defs><defs><linearGradient id="grad1_1" x1="43.8%" y1="100%" x2="100%" y2="0%"><stop offset="14.444444444444446%" stop-color="#009431" stop-opacity="1"></stop><stop offset="85.55555555555554%" stop-color="#008349" stop-opacity="1"></stop></linearGradient></defs><defs><linearGradient id="grad1_2" x1="43.8%" y1="100%" x2="100%" y2="0%"><stop offset="14.444444444444446%" stop-color="#007057" stop-opacity="1"></stop><stop offset="85.55555555555554%" stop-color="#008349" stop-opacity="1"></stop></linearGradient></defs><defs><linearGradient id="grad1_3" x1="43.8%" y1="100%" x2="100%" y2="0%"><stop offset="14.444444444444446%" stop-color="#007057" stop-opacity="1"></stop><stop offset="85.55555555555554%" stop-color="#005d5d" stop-opacity="1"></stop></linearGradient></defs><defs><linearGradient id="grad1_4" x1="43.8%" y1="100%" x2="100%" y2="0%"><stop offset="14.444444444444446%" stop-color="#004959" stop-opacity="1"></stop><stop offset="85.55555555555554%" stop-color="#005d5d" stop-opacity="1"></stop></linearGradient></defs><defs><linearGradient id="grad1_5" x1="43.8%" y1="100%" x2="100%" y2="0%"><stop offset="14.444444444444446%" stop-color="#004959" stop-opacity="1"></stop><stop offset="85.55555555555554%" stop-color="#00364b" stop-opacity="1"></stop></linearGradient></defs><defs><linearGradient id="grad1_6" x1="43.8%" y1="100%" x2="100%" y2="0%"><stop offset="14.444444444444446%" stop-color="#002337" stop-opacity="1"></stop><stop offset="85.55555555555554%" stop-color="#00364b" stop-opacity="1"></stop></linearGradient></defs><defs><linearGradient id="grad1_7" x1="43.8%" y1="100%" x2="100%" y2="0%"><stop offset="14.444444444444446%" stop-color="#002337" stop-opacity="1"></stop><stop offset="85.55555555555554%" stop-color="#001220" stop-opacity="1"></stop></linearGradient></defs><defs><linearGradient id="grad2_0" x1="0%" y1="100%" x2="56.3%" y2="0%"><stop offset="14.444444444444446%" stop-color="#009431" stop-opacity="1"></stop><stop offset="85.55555555555554%" stop-color="#009431" stop-opacity="1"></stop></linearGradient></defs><defs><linearGradient id="grad2_1" x1="0%" y1="100%" x2="56.3%" y2="0%"><stop offset="14.444444444444446%" stop-color="#008349" stop-opacity="1"></stop><stop offset="85.55555555555554%" stop-color="#009431" stop-opacity="1"></stop></linearGradient></defs><defs><linearGradient id="grad2_2" x1="0%" y1="100%" x2="56.3%" y2="0%"><stop offset="14.444444444444446%" stop-color="#008349" stop-opacity="1"></stop><stop offset="85.55555555555554%" stop-color="#007057" stop-opacity="1"></stop></linearGradient></defs><defs><linearGradient id="grad2_3" x1="0%" y1="100%" x2="56.3%" y2="0%"><stop offset="14.444444444444446%" stop-color="#005d5d" stop-opacity="1"></stop><stop offset="85.55555555555554%" stop-color="#007057" stop-opacity="1"></stop></linearGradient></defs><defs><linearGradient id="grad2_4" x1="0%" y1="100%" x2="56.3%" y2="0%"><stop offset="14.444444444444446%" stop-color="#005d5d" stop-opacity="1"></stop><stop offset="85.55555555555554%" stop-color="#004959" stop-opacity="1"></stop></linearGradient></defs><defs><linearGradient id="grad2_5" x1="0%" y1="100%" x2="56.3%" y2="0%"><stop offset="14.444444444444446%" stop-color="#00364b" stop-opacity="1"></stop><stop offset="85.55555555555554%" stop-color="#004959" stop-opacity="1"></stop></linearGradient></defs><defs><linearGradient id="grad2_6" x1="0%" y1="100%" x2="56.3%" y2="0%"><stop offset="14.444444444444446%" stop-color="#00364b" stop-opacity="1"></stop><stop offset="85.55555555555554%" stop-color="#002337" stop-opacity="1"></stop></linearGradient></defs><defs><linearGradient id="grad2_7" x1="0%" y1="100%" x2="56.3%" y2="0%"><stop offset="14.444444444444446%" stop-color="#001220" stop-opacity="1"></stop><stop offset="85.55555555555554%" stop-color="#002337" stop-opacity="1"></stop></linearGradient></defs><g transform="translate(960, 540)"><path d="M-324 0C-315.7 -57 -307.4 -114 -280.6 -162C-253.8 -210 -208.4 -249 -158.5 -274.5C-108.6 -300 -54.3 -312 0 -324L0 0Z" fill="#001b2c"></path><path d="M-283.5 0C-276.3 -49.9 -269 -99.7 -245.5 -141.8C-222 -183.8 -182.3 -217.9 -138.7 -240.2C-95.1 -262.5 -47.5 -273 0 -283.5L0 0Z" fill="#002c42"></path><path d="M-243 0C-236.8 -42.7 -230.6 -85.5 -210.4 -121.5C-190.3 -157.5 -156.3 -186.8 -118.9 -205.9C-81.5 -225 -40.7 -234 0 -243L0 0Z" fill="#003f53"></path><path d="M-202.5 0C-197.3 -35.6 -192.1 -71.2 -175.4 -101.3C-158.6 -131.3 -130.2 -155.6 -99.1 -171.6C-67.9 -187.5 -34 -195 0 -202.5L0 0Z" fill="#00535c"></path><path d="M-162 0C-157.9 -28.5 -153.7 -57 -140.3 -81C-126.9 -105 -104.2 -124.5 -79.3 -137.3C-54.3 -150 -27.2 -156 0 -162L0 0Z" fill="#00665b"></path><path d="M-121.5 0C-118.4 -21.4 -115.3 -42.7 -105.2 -60.8C-95.2 -78.8 -78.1 -93.4 -59.4 -102.9C-40.7 -112.5 -20.4 -117 0 -121.5L0 0Z" fill="#007951"></path><path d="M-81 0C-78.9 -14.2 -76.9 -28.5 -70.1 -40.5C-63.4 -52.5 -52.1 -62.3 -39.6 -68.6C-27.2 -75 -13.6 -78 0 -81L0 0Z" fill="#008c3e"></path><path d="M-40.5 0C-39.5 -7.1 -38.4 -14.2 -35.1 -20.3C-31.7 -26.3 -26 -31.1 -19.8 -34.3C-13.6 -37.5 -6.8 -39 0 -40.5L0 0Z" fill="#009431"></path></g><g transform="translate(0, 0)"><path d="M324 0C316.5 58.4 309 116.8 280.6 162C252.2 207.2 202.8 239.3 152.5 264.1C102.2 288.9 51.1 306.5 0 324L0 0Z" fill="#001b2c"></path><path d="M283.5 0C277 51.1 270.4 102.2 245.5 141.7C220.6 181.3 177.4 209.4 133.4 231.1C89.5 252.8 44.7 268.2 0 283.5L0 0Z" fill="#002c42"></path><path d="M243 0C237.4 43.8 231.8 87.6 210.4 121.5C189.1 155.4 152.1 179.5 114.4 198.1C76.7 216.7 38.3 229.9 0 243L0 0Z" fill="#003f53"></path><path d="M202.5 0C197.8 36.5 193.1 73 175.4 101.2C157.6 129.5 126.7 149.6 95.3 165.1C63.9 180.6 32 191.5 0 202.5L0 0Z" fill="#00535c"></path><path d="M162 0C158.3 29.2 154.5 58.4 140.3 81C126.1 103.6 101.4 119.7 76.3 132.1C51.1 144.5 25.6 153.2 0 162L0 0Z" fill="#00665b"></path><path d="M121.5 0C118.7 21.9 115.9 43.8 105.2 60.7C94.6 77.7 76 89.7 57.2 99.1C38.3 108.4 19.2 114.9 0 121.5L0 0Z" fill="#007951"></path><path d="M81 0C79.1 14.6 77.3 29.2 70.1 40.5C63 51.8 50.7 59.8 38.1 66C25.6 72.2 12.8 76.6 0 81L0 0Z" fill="#008c3e"></path><path d="M40.5 0C39.6 7.3 38.6 14.6 35.1 20.2C31.5 25.9 25.3 29.9 19.1 33C12.8 36.1 6.4 38.3 0 40.5L0 0Z" fill="#009431"></path></g></svg>